# xmcd CD database file generated by Grip 3.2.0
# 
# Track frame offsets:
#       182
#       13967
#       29487
#       44920
#       61052
#       83365
#       92737
#       109200
#       120452
#       135107
#       145422
# 
# Disc length: 2206 seconds
# 
# Revision: 1
# Processed by: cddbd v1.5.2PL0 Copyright (c) Steve Scherf et al.
# Submitted via: Grip 3.2.0
# 
DISCID=8f089c0b
DTITLE=Lisa Minnelli - Live at the Olympia in Paris
DYEAR=1972
DGENRE=Jazz
TTITLE0=Introduction
TTITLE1=Everybody's Talkin'
TTITLE2=God Bless the Child
TTITLE3=Liza
TTITLE4=Married You'd Better Sit Down, Kids
TTITLE5=Nous on s'aimera
TTITLE6=I Will Wait for You
TTITLE7=There Is a Time
TTITLE8=My Mammy
TTITLE9=Everybody Loves My Baby
TTITLE10=Cabaret
EXTD=YEAR: 1972
EXTT0=
EXTT1=
EXTT2=
EXTT3=
EXTT4=
EXTT5=
EXTT6=
EXTT7=
EXTT8=
EXTT9=
EXTT10=
PLAYORDER=
